<svg id="Layer_1" data-name="Layer 1" xmlns="http://www.w3.org/2000/svg" viewBox="0 0 273.71 273.71"><defs><style>.cls-1{fill:#ed6516;}.cls-2{fill:#fff;}</style></defs><path class="cls-1" d="M67.74,67.75a97.74,97.74,0,0,1,138.23,0l27.66-27.66a136.85,136.85,0,0,0-193.55,0Z"/><path class="cls-2" d="M241.63,48.82l-27.8,27.8a97.77,97.77,0,0,1,6.81,110.57l-50.32-50.33L142.91,72.45h-.14v87.06l54.32,54.32a97.77,97.77,0,0,1-120.47,0l54.32-54.32V72.78l-27.55,64.08L53.06,187.19A97.8,97.8,0,0,1,59.88,76.62l-27.8-27.8a136.86,136.86,0,1,0,209.55,0Z"/><path class="cls-2" d="M237.85,250.87h-.95v1.44h-.48v-3.87H238a1.12,1.12,0,0,1,1.18,1.2,1.13,1.13,0,0,1-.83,1.18l.88,1.49h-.57Zm-.95-.45h1a.77.77,0,0,0,0-1.53h-1Z"/><path class="cls-2" d="M237.72,254a3.61,3.61,0,1,1,3.61-3.61A3.61,3.61,0,0,1,237.72,254Zm0-6.74a3.13,3.13,0,1,0,3.13,3.13A3.13,3.13,0,0,0,237.72,247.24Z"/></svg>