<svg width="225" height="32" viewBox="0 0 196 32" fill="currentColor" xmlns="http://www.w3.org/2000/svg" aria-labelledby="blz-icon-title-steam">
<title id="blz-icon-title-steam">Steam</title>
<path d="M10.0265 24.2775L8.06104 23.4655C8.40935 24.1907 9.01193 24.798 9.81199 25.1315C11.5416 25.852 13.5356 25.0313 14.2565 23.3002C14.6055 22.4633 14.6077 21.5391 14.2615 20.7C13.9161 19.8605 13.2643 19.2059 12.4263 18.8565C11.5948 18.5103 10.7039 18.523 9.92122 18.8185L11.9514 19.658C13.2271 20.1897 13.8304 21.6545 13.2987 22.9302C12.7681 24.2063 11.3022 24.8096 10.0265 24.2775Z"/>
<path d="M25.2447 11.8762C25.2447 9.65935 23.4413 7.85559 21.2241 7.85559C19.0073 7.85559 17.2035 9.65935 17.2035 11.8762C17.2035 14.0933 19.0073 15.8964 21.2241 15.8964C23.4413 15.8964 25.2447 14.093 25.2447 11.8762ZM18.2105 11.8693C18.2105 10.2012 19.5629 8.84916 21.231 8.84916C22.8991 8.84916 24.2515 10.2012 24.2515 11.8693C24.2515 13.5374 22.8991 14.8894 21.231 14.8894C19.5629 14.8894 18.2105 13.5371 18.2105 11.8693Z"/>
<path d="M15.9448 0C7.53984 0 0.654301 6.4808 0 14.7169L8.57572 18.2626C9.30236 17.7656 10.1802 17.4744 11.1246 17.4744C11.2092 17.4744 11.2935 17.4781 11.377 17.482L15.1907 11.9543C15.1907 11.9279 15.1907 11.9022 15.1907 11.8762C15.1907 8.54896 17.8973 5.84205 21.2248 5.84205C24.552 5.84205 27.2586 8.54896 27.2586 11.8762C27.2586 15.2034 24.552 17.9106 21.2248 17.9106C21.1789 17.9106 21.1333 17.9106 21.0877 17.907L15.6486 21.788C15.6522 21.8585 15.654 21.9305 15.654 22.0021C15.654 24.5 13.6224 26.5312 11.1249 26.5312C8.93271 26.5312 7.09966 24.9665 6.68444 22.8944L0.551219 20.3604C2.4501 27.0763 8.62021 32 15.9448 32C24.7817 32 31.945 24.8363 31.945 16.0005C31.945 7.16332 24.7813 0 15.9448 0Z"/>
<path d="M94.121 21.6755L90.8759 14.6952V22.0267H88.4587V9.97329H90.8705L94.9214 18.6742L98.8284 9.97329H101.261V22.0267H98.8443V14.6323L95.5457 21.6755H94.121Z"/>
<path d="M77.6261 19.6865L76.8282 22.027H74.182L78.7014 9.97365H81.2423L85.8893 22.0267H83.1538L82.3385 19.6862L77.6261 19.6865ZM79.9575 12.8487L78.3115 17.6748H81.6376L79.9575 12.8487Z"/>
<path d="M71.2179 14.8478V17.0129H66.3872V19.8417H71.9919V22.0267H63.8636V9.97329H71.9919V12.1319H66.3872V14.8478H71.2179Z"/>
<path d="M54.8886 22.0267V12.1384H51.2247V9.97329H61.066V12.1384H57.4129V22.0267H54.8886Z"/>
<path d="M49.0324 10.9473L47.9604 12.8318C47.1347 12.2549 46.0156 11.9076 45.0386 11.9076C43.9221 11.9076 43.2313 12.3699 43.2313 13.1978C43.2313 14.2037 44.4585 14.4377 46.2825 15.0923C48.2432 15.7857 49.3703 16.6006 49.3703 18.3964C49.3703 20.8534 47.4381 22.2332 44.661 22.2332C43.3076 22.2332 41.6749 21.8838 40.4198 21.1203L41.2018 19.0312C42.2214 19.5697 43.4411 19.8891 44.5283 19.8891C45.9939 19.8891 46.6905 19.3484 46.6905 18.549C46.6905 17.6343 45.6282 17.3594 43.9134 16.7916C41.9592 16.1391 40.605 15.2829 40.605 13.2954C40.605 11.054 42.4001 9.76678 44.9829 9.76678C46.7831 9.76678 48.2299 10.3372 49.0324 10.9473Z"/>
</svg>