<svg width="32" height="32" xmlns="http://www.w3.org/2000/svg" focusable="false" stroke="currentColor" stroke-linecap="round" stroke-linejoin="round" role="presentation" fill="currentColor" stroke-width="0" viewBox="0 0 48 48" aria-labelledby="blz-icon-title-steam">
<title id="blz-icon-title-steam">Steam</title>
<path d="M17.2798 33.3122L15.0687 32.3987C15.4605 33.2146 16.1384 33.8977 17.0385 34.2729C18.9843 35.0835 21.2276 34.1602 22.0385 32.2128C22.4312 31.2712 22.4336 30.2315 22.0442 29.2875C21.6556 28.3431 20.9224 27.6066 19.9796 27.2135C19.0441 26.8241 18.0419 26.8384 17.1614 27.1708L19.4453 28.1152C20.8805 28.7134 21.5592 30.3613 20.961 31.7965C20.3641 33.232 18.7149 33.9108 17.2798 33.3122Z"/>
<path d="M34.4002 19.3607C34.4002 16.8668 32.3714 14.8375 29.8771 14.8375C27.3832 14.8375 25.354 16.8668 25.354 19.3607C25.354 21.855 27.3832 23.8834 29.8771 23.8834C32.3714 23.8834 34.4002 21.8546 34.4002 19.3607ZM26.4868 19.353C26.4868 17.4763 28.0082 15.9553 29.8848 15.9553C31.7615 15.9553 33.2829 17.4763 33.2829 19.353C33.2829 21.2296 31.7615 22.7506 29.8848 22.7506C28.0082 22.7506 26.4868 21.2292 26.4868 19.353Z"/>
<path d="M23.9379 6C14.4823 6 6.73609 13.2909 6 22.5565L15.6477 26.5454C16.4652 25.9863 17.4527 25.6587 18.5151 25.6587C18.6104 25.6587 18.7052 25.6628 18.7992 25.6673L23.0896 19.4486C23.0896 19.4189 23.0896 19.39 23.0896 19.3607C23.0896 15.6176 26.1344 12.5723 29.8779 12.5723C33.621 12.5723 36.6659 15.6176 36.6659 19.3607C36.6659 23.1038 33.621 26.1495 29.8779 26.1495C29.8263 26.1495 29.775 26.1495 29.7237 26.1454L23.6047 30.5115C23.6088 30.5908 23.6108 30.6718 23.6108 30.7524C23.6108 33.5624 21.3252 35.8476 18.5155 35.8476C16.0493 35.8476 13.9871 34.0873 13.52 31.7562L6.62012 28.9054C8.75637 36.4608 15.6977 42 23.9379 42C33.8794 42 41.9381 33.9409 41.9381 24.0006C41.9381 14.0587 33.879 6 23.9379 6Z"/>
</svg>