<svg width="80" height="80" viewBox="0 0 80 80" fill="none" xmlns="http://www.w3.org/2000/svg">
<path d="M69.717 37.5565H67.7672C67.2549 31.0091 64.4186 24.8596 59.7691 20.2158C55.1196 15.572 48.9626 12.7391 42.4072 12.2275V10.2801C42.43 9.98928 42.3923 9.69696 42.2966 9.42143C42.2008 9.1459 42.0488 8.89312 41.8505 8.67899C41.6522 8.46486 41.4119 8.29404 41.1444 8.17719C40.8768 8.06033 40.5881 8 40.296 8C40.004 8 39.7149 8.06033 39.4474 8.17719C39.1798 8.29404 38.9395 8.46486 38.7412 8.67899C38.543 8.89312 38.3912 9.1459 38.2955 9.42143C38.1997 9.69696 38.162 9.98928 38.1848 10.2801V12.2275C31.6433 12.7567 25.5045 15.5974 20.8709 20.2395C16.2373 24.8817 13.412 31.0213 12.9021 37.5565H10.9523C10.4209 37.598 9.92462 37.8381 9.56271 38.229C9.20081 38.6199 9 39.1327 9 39.6651C9 40.1974 9.20081 40.7102 9.56271 41.1011C9.92462 41.4919 10.4209 41.7321 10.9523 41.7737H12.9021C13.4144 48.321 16.2507 54.4704 20.9002 59.1142C25.5497 63.758 31.7067 66.5909 38.2621 67.1026V69.05C38.3037 69.5808 38.5444 70.0764 38.9357 70.4378C39.3271 70.7993 39.8402 71 40.3733 71C40.9063 71 41.4198 70.7993 41.8111 70.4378C42.2024 70.0764 42.4429 69.5808 42.4845 69.05V67.1026C49.0399 66.5909 55.1971 63.758 59.8466 59.1142C64.4961 54.4704 67.3324 48.321 67.8447 41.7737H69.717C70.0081 41.7964 70.3008 41.7588 70.5767 41.6632C70.8525 41.5675 71.1056 41.4159 71.32 41.2179C71.5344 41.0198 71.7055 40.7797 71.8225 40.5124C71.9395 40.2452 72 39.9567 72 39.6651C72 39.3734 71.9395 39.0848 71.8225 38.8176C71.7055 38.5504 71.5344 38.3103 71.32 38.1123C71.1056 37.9142 70.8525 37.7626 70.5767 37.667C70.3008 37.5713 70.0081 37.5337 69.717 37.5565V37.5565ZM35.6666 36.2668C35.845 35.3513 36.2932 34.5099 36.9535 33.8505C37.6138 33.191 38.4561 32.7436 39.3727 32.5655C39.6791 32.5077 39.9906 32.4818 40.3023 32.4881C40.6098 32.4823 40.917 32.5082 41.2191 32.5655C42.1323 32.7488 42.9709 33.1984 43.6285 33.8574C44.2861 34.5164 44.7332 35.3552 44.9138 36.268C45.0943 37.1807 45.0002 38.1264 44.643 38.9857C44.2857 39.8449 43.6814 40.5791 42.9066 41.0956C42.1318 41.6121 41.2213 41.8878 40.2897 41.8877C39.3582 41.8875 38.4476 41.6117 37.6729 41.095C36.8982 40.5783 36.2942 39.8439 35.9371 38.9846C35.5801 38.1252 35.4859 37.1795 35.6666 36.2668ZM57.011 56.7982V49.2794C57.0127 49.0994 56.9786 48.921 56.9104 48.7543C56.8423 48.5877 56.7416 48.4363 56.6141 48.309C56.4867 48.1817 56.3352 48.0811 56.1683 48.013C56.0015 47.9449 55.8227 47.9107 55.6425 47.9124H44.654V42.986H51.8977C52.0679 42.9827 52.2304 42.9136 52.3507 42.7934C52.4711 42.6732 52.54 42.5111 52.5433 42.3411V31.7659C52.54 31.5959 52.4711 31.4338 52.3507 31.3136C52.2304 31.1934 52.0679 31.1243 51.8977 31.121H43.1947V29.2768C43.1964 29.2131 43.1855 29.1496 43.1623 29.0902C43.139 29.0308 43.104 28.9767 43.0595 28.931C43.0149 28.8854 42.9616 28.849 42.9028 28.8242C42.844 28.7994 42.781 28.7867 42.7171 28.7868H37.8879C37.7577 28.7868 37.6328 28.8384 37.5408 28.9303C37.4488 29.0222 37.397 29.1469 37.397 29.2768V31.121H28.707C28.5357 31.121 28.3716 31.189 28.2505 31.3099C28.1294 31.4308 28.0613 31.5949 28.0613 31.7659V42.3411C28.0613 42.5122 28.1294 42.6761 28.2505 42.797C28.3716 42.918 28.5357 42.986 28.707 42.986H35.951V47.9124H24.9496C24.5865 47.9124 24.2384 48.0565 23.9817 48.3128C23.7251 48.5692 23.5808 48.9169 23.5808 49.2794V56.7982C19.4621 52.8022 16.9186 47.4607 16.4143 41.7479H18.093C18.3841 41.7706 18.6768 41.733 18.9526 41.6373C19.2285 41.5417 19.4816 41.3901 19.696 41.1921C19.9104 40.994 20.0815 40.7538 20.1985 40.4866C20.3155 40.2194 20.376 39.9309 20.376 39.6392C20.376 39.3476 20.3155 39.0591 20.1985 38.7919C20.0815 38.5247 19.9104 38.2845 19.696 38.0864C19.4816 37.8884 19.2285 37.7368 18.9526 37.6411C18.6768 37.5455 18.3841 37.5079 18.093 37.5306H16.4143C16.9371 31.9391 19.4074 26.708 23.3951 22.7488C27.3827 18.7896 32.6351 16.3533 38.2365 15.8643V17.5538C38.2781 18.0845 38.5186 18.5801 38.9099 18.9416C39.3012 19.3031 39.8144 19.5038 40.3474 19.5038C40.8805 19.5038 41.3939 19.3031 41.7853 18.9416C42.1766 18.5801 42.417 18.0845 42.4586 17.5538V15.8643C48.0654 16.37 53.3169 18.8246 57.2976 22.8004C61.2782 26.7762 63.7358 32.0211 64.2421 37.6209H62.5505C62.0191 37.6625 61.5231 37.9026 61.1612 38.2935C60.7993 38.6843 60.5982 39.1972 60.5982 39.7295C60.5982 40.2619 60.7993 40.7747 61.1612 41.1655C61.5231 41.5564 62.0191 41.7966 62.5505 41.8381H64.2421C63.7238 47.5312 61.176 52.849 57.0627 56.824L57.011 56.7982Z" fill="white"/>
<path d="M41.587 38.3606C42.3723 37.5736 42.3783 36.3079 41.6004 35.5336C40.8225 34.7593 39.5552 34.7698 38.7699 35.5569C37.9847 36.3439 37.9786 37.6096 38.7566 38.3839C39.5345 39.1582 40.8017 39.1477 41.587 38.3606Z" fill="white"/>
</svg>
