<svg width="80" height="80" viewBox="0 0 80 80" fill="none" xmlns="http://www.w3.org/2000/svg">
<path d="M70.3801 33.4757L56.2931 19.3806C54.5383 17.6269 52.2473 16.75 49.9726 16.75C47.6817 16.75 45.4069 17.6269 43.6522 19.3644L40.4838 22.5309C40.4838 22.5309 40.4838 22.5309 40.4676 22.5309L36.3568 26.6555C36.3568 26.6555 36.3568 26.6555 36.3568 26.6718L28.3141 34.7261C27.7942 35.2457 28.1679 36.1388 28.899 36.1388H52.1011C52.8485 36.1388 53.206 35.2457 52.686 34.7261L50.0214 32.063C49.3227 31.3647 48.3803 30.975 47.3892 30.975H42.1899C41.5237 30.975 41.1825 30.1631 41.6537 29.6759L44.6433 26.688L47.7142 23.6189C48.2016 23.1318 48.819 22.7745 49.5014 22.6771C50.4763 22.5472 51.4187 22.8557 52.1011 23.5377L66.2206 37.6653C67.4067 38.8507 67.4067 40.7993 66.2206 41.9847L52.1986 56.0311C51.7274 56.502 51.1425 56.843 50.4926 56.9567C49.8264 57.0704 49.1602 56.9567 48.5916 56.6806C48.2341 56.502 47.7142 56.5507 47.4379 56.843L43.8634 60.4317C43.8634 60.448 43.8634 60.4642 43.8634 60.4804C45.5857 62.0881 47.7792 62.9 49.9726 62.9C52.2636 62.9 54.5383 62.0231 56.2931 60.2856L70.3801 46.1905C73.8734 42.6505 73.8734 36.967 70.3801 33.4757Z" fill="white"/>
<path d="M10.62 46.1418L24.707 60.2369C26.4455 61.9744 28.7365 62.8513 31.0274 62.8513C33.3184 62.8513 35.5931 61.9744 37.3479 60.2369L40.5162 57.0704C40.5162 57.0704 40.5162 57.0704 40.5325 57.0704L44.6432 52.9458C44.6432 52.9458 44.6432 52.9458 44.6432 52.9295L52.686 44.8752C53.2059 44.3556 52.8322 43.4624 52.101 43.4624H28.8989C28.1515 43.4624 27.7941 44.3556 28.314 44.8752L30.9787 47.5383C31.6773 48.2366 32.6197 48.6263 33.6109 48.6263H38.8102C39.4764 48.6263 39.8176 49.4382 39.3464 49.9254L36.3568 52.9133L33.2859 55.9824C32.7985 56.4695 32.181 56.8268 31.4986 56.9242C30.5237 57.0541 29.5814 56.7456 28.8989 56.0636L14.7795 41.936C13.5934 40.7506 13.5934 38.802 14.7795 37.6166L28.8015 23.5864C29.2726 23.1155 29.8576 22.7745 30.5075 22.6608C31.1737 22.5472 31.8398 22.6608 32.4085 22.9369C32.766 23.1155 33.2859 23.0668 33.5621 22.7745L37.1367 19.1858C37.1367 19.1695 37.1367 19.1533 37.1367 19.1371C35.4306 17.5619 33.2372 16.75 31.0274 16.75C28.7365 16.75 26.4618 17.6269 24.707 19.3644L10.62 33.4757C7.12667 36.967 7.12667 42.6505 10.62 46.1418Z" fill="white"/>
</svg>
