<svg width="80" height="80" viewBox="0 0 80 80" fill="none" xmlns="http://www.w3.org/2000/svg">
<g clip-path="url(#clip0_6524_102197)">
<path d="M59.1842 42.9314V37.3554C59.1862 37.1845 59.1557 37.0147 59.0944 36.8557C59.0368 36.7364 58.9634 36.6257 58.8763 36.527V36.4612C58.7604 36.3335 58.6209 36.2306 58.4658 36.1587C58.3076 36.0896 58.1375 36.0539 57.9655 36.0535H23.0731C22.741 36.0584 22.4237 36.1951 22.1879 36.4349C21.9509 36.6798 21.8173 37.0105 21.8159 37.3554V42.9314C21.8187 43.6149 22.0809 44.2706 22.5471 44.7593L33.7461 56.2268V63.1309C33.7475 63.4759 33.8811 63.8065 34.1181 64.0514C34.3559 64.2864 34.6729 64.4183 35.0032 64.4197H46.0354C46.3701 64.4217 46.6923 64.2896 46.9333 64.0514C47.1656 63.8044 47.2945 63.474 47.2925 63.1309V56.2531L58.4786 44.7856C58.9417 44.2861 59.195 43.6203 59.1842 42.9314V42.9314Z" fill="white"/>
<path d="M40.5064 30.7012C42.7315 30.7012 44.8654 29.795 46.4387 28.1821C48.0121 26.5692 48.896 24.3816 48.896 22.1006C48.896 19.8196 48.0121 17.632 46.4387 16.0191C44.8654 14.4061 42.7315 13.5 40.5064 13.5C38.2813 13.5 36.1474 14.4061 34.5741 16.0191C33.0007 17.632 32.1168 19.8196 32.1168 22.1006C32.1168 24.3816 33.0007 26.5692 34.5741 28.1821C36.1474 29.795 38.2813 30.7012 40.5064 30.7012V30.7012Z" fill="white"/>
<path d="M72.1148 36.0667H62.6605C62.7797 36.4943 62.8401 36.9369 62.8401 37.3817V42.9313C62.8389 43.7791 62.6777 44.6186 62.3655 45.4037C62.0464 46.1825 61.5799 46.8887 60.9929 47.4815L55.0663 53.5571V55.1615C55.0481 55.2791 55.0481 55.399 55.0663 55.5166C55.1154 55.6227 55.1803 55.7203 55.2587 55.8059C55.3468 55.8866 55.4462 55.9531 55.5538 56.0032C55.6603 56.0452 55.7732 56.0675 55.8873 56.0689H63.6611C63.7757 56.0694 63.8892 56.0463 63.9949 56.0011C64.1006 55.956 64.1965 55.8896 64.2769 55.8059C64.4413 55.6338 64.5335 55.4025 64.5334 55.1615V50.2826L72.4227 42.208C72.5899 42.0353 72.7214 41.8299 72.8096 41.6039C72.8977 41.378 72.9407 41.1362 72.9358 40.893V36.9478C72.9611 36.8352 72.9611 36.7183 72.9358 36.6058C72.9089 36.515 72.8654 36.4302 72.8076 36.356C72.7217 36.2724 72.6217 36.2055 72.5125 36.1587C72.3879 36.0993 72.2523 36.0679 72.1148 36.0667V36.0667Z" fill="white"/>
<path d="M59.8384 30.7012C61.441 30.7012 62.9785 30.0513 64.1154 28.8932C65.2522 27.7352 65.8959 26.1632 65.9061 24.5203C65.9061 22.8694 65.2672 21.2859 64.1297 20.1172C62.9921 18.9486 61.4488 18.2903 59.8384 18.2869C58.2257 18.2869 56.6791 18.9436 55.5388 20.1126C54.3985 21.2816 53.7579 22.8671 53.7579 24.5203C53.7714 26.1644 54.418 27.7364 55.5569 28.8941C56.6957 30.0517 58.2346 30.7012 59.8384 30.7012V30.7012Z" fill="white"/>
<path d="M8.5516 36.1324C8.44811 36.1828 8.35289 36.2493 8.26938 36.3297C8.18255 36.416 8.11285 36.5187 8.06412 36.6322C8.04471 36.7453 8.04471 36.861 8.06412 36.9741V40.9193C8.06007 41.4097 8.24439 41.8821 8.57725 42.2344L16.4665 50.3089V55.1615C16.4716 55.4014 16.563 55.6309 16.7231 55.8059C16.891 55.9746 17.1166 56.069 17.3517 56.0689H25.0485C25.1667 56.0662 25.2836 56.044 25.3949 56.0032C25.4984 55.9529 25.5936 55.8863 25.6771 55.8059C25.7638 55.7275 25.83 55.628 25.8695 55.5166C25.9194 55.4052 25.9456 55.2841 25.9465 55.1615V53.5966L20.0199 47.521C19.4329 46.9282 18.9664 46.2219 18.6473 45.4432C18.3241 44.6615 18.1625 43.8197 18.1727 42.9708V37.3686C18.1749 36.9249 18.2309 36.4831 18.3394 36.0535H8.89795C8.7791 36.0605 8.66214 36.0871 8.5516 36.1324V36.1324Z" fill="white"/>
<path d="M27.2549 24.5203C27.2549 22.8671 26.6143 21.2816 25.474 20.1126C24.3337 18.9436 22.7871 18.2869 21.1744 18.2869C20.3748 18.2851 19.5827 18.4451 18.8435 18.7576C18.1043 19.0701 17.4325 19.529 16.8665 20.108C16.3005 20.687 15.8515 21.3747 15.5451 22.1318C15.2388 22.889 15.0811 23.7006 15.0811 24.5203C15.0845 26.1713 15.7266 27.7534 16.8665 28.9195C18.0065 30.0857 19.5511 30.7406 21.1616 30.7406C21.9601 30.7424 22.7511 30.5828 23.4895 30.2712C24.2278 29.9595 24.8991 29.5018 25.4649 28.9242C26.0307 28.3466 26.48 27.6604 26.7872 26.9048C27.0943 26.1491 27.2532 25.3389 27.2549 24.5203V24.5203Z" fill="white"/>
</g>
<defs>
<clipPath id="clip0_6524_102197">
<rect width="65" height="50.9459" fill="white" transform="translate(8 13.5)"/>
</clipPath>
</defs>
</svg>
