<svg width="80" height="80" viewBox="0 0 80 80" fill="none" xmlns="http://www.w3.org/2000/svg">
<path d="M26.1937 22.224C30.0393 19.2572 34.7608 17.6505 39.6177 17.656H40.2257C45.0827 17.6505 49.8042 19.2572 53.6497 22.224L59.2497 15.36C53.8251 11.1045 47.1284 8.79431 40.2337 8.8H39.6257C32.7311 8.79431 26.0344 11.1045 20.6097 15.36L26.1937 22.224Z" fill="white"/>
<path d="M71.1217 39.6959C71.1231 35.3701 70.2143 31.0925 68.4542 27.1409C66.6941 23.1894 64.1222 19.6524 60.9057 16.7599L55.3057 23.624C58.9337 27.022 61.304 31.5486 62.0304 36.4661C62.7567 41.3836 61.7964 46.4021 59.3057 50.7039L46.8977 38.7599L41.2417 25.9599V45.576L53.4577 57.2959C52.8639 57.7527 52.2442 58.1747 51.6017 58.5599V58.5599C48.1795 60.6466 44.2499 61.7536 40.2417 61.7599H39.6337C35.6228 61.7546 31.6904 60.6477 28.2657 58.5599V58.5599C27.6257 58.1759 27.0097 57.76 26.4177 57.312L38.6177 45.576V25.9679L32.9617 38.7679L20.5537 50.712C18.0716 46.4174 17.116 41.4093 17.8422 36.5026C18.5685 31.5958 20.934 27.0793 24.5537 23.688L18.9537 16.824C15.8526 19.6293 13.3542 23.0358 11.6103 26.8366C9.86647 30.6373 8.9136 34.753 8.80959 38.9334C8.70559 43.1138 9.45263 47.2718 11.0053 51.1546C12.558 55.0373 14.8839 58.5639 17.8417 61.5199C20.7035 64.392 24.1047 66.6703 27.8497 68.224L27.9537 68.264C28.2417 68.384 28.5217 68.496 28.8097 68.6L29.0977 68.712L29.7217 68.9279C30.7941 69.2962 31.8865 69.6034 32.9937 69.848L33.2417 69.9039L33.9457 70.048L34.2977 70.112L34.9617 70.224L35.6097 70.312L36.4097 70.4079L37.0577 70.4719H37.5137L38.2337 70.5199H38.6257C38.9937 70.5199 39.3617 70.5199 39.7297 70.5199H40.3617C40.7377 70.5199 41.1057 70.5199 41.4737 70.5199H41.8577C42.0977 70.5199 42.3457 70.5199 42.5857 70.4719H43.0417L43.6897 70.4079L44.4897 70.312L45.1297 70.224L45.8017 70.112L46.1457 70.048L46.8577 69.9039L47.0977 69.848C48.2075 69.6034 49.3026 69.2962 50.3777 68.9279L51.0017 68.712L51.2817 68.6C51.5697 68.496 51.8577 68.384 52.1377 68.264L52.2417 68.224C55.9888 66.6743 59.3907 64.3955 62.2497 61.5199V61.5199C67.9823 55.7084 71.1733 47.8589 71.1217 39.6959" fill="white"/>
</svg>
